<?xml version="1.0" standalone="no"?>
<!DOCTYPE svg PUBLIC "-//W3C//DTD SVG 20010904//EN"
 "http://www.w3.org/TR/2001/REC-SVG-20010904/DTD/svg10.dtd">
<svg version="1.0" xmlns="http://www.w3.org/2000/svg"
 width="239.000000pt" height="239.000000pt" viewBox="0 0 239.000000 239.000000"
 preserveAspectRatio="xMidYMid meet">
<metadata>
Created by potrace 1.11, written by Peter Selinger 2001-2013
</metadata>
<g transform="translate(0.000000,239.000000) scale(0.100000,-0.100000)"
fill="#000000" stroke="none">
<path d="M340 2051 c0 -4 38 -11 84 -14 98 -7 161 -33 178 -75 7 -17 13 -114
15 -257 l4 -230 -95 -63 c-460 -305 -665 -746 -402 -863 107 -47 259 -44 395
7 93 35 95 35 88 -34 -7 -64 -28 -122 -51 -142 -9 -7 -52 -18 -97 -24 -44 -6
-77 -15 -73 -19 12 -11 1412 -9 1434 3 35 19 96 268 72 292 -15 15 -24 5 -45
-52 -22 -58 -76 -116 -130 -140 -69 -31 -219 -43 -437 -36 -187 6 -254 16
-310 46 -38 20 -59 88 -70 219 l-10 122 33 36 c17 20 55 60 82 89 28 29 55 59
60 67 8 12 47 61 166 210 15 20 18 20 51 4 27 -13 50 -15 100 -10 82 7 109 1
152 -38 44 -38 58 -97 46 -189 -10 -77 -29 -124 -81 -201 -75 -111 -194 -188
-305 -197 -77 -6 -132 11 -140 43 -10 39 5 62 54 85 61 29 82 48 82 76 0 38
-10 53 -45 64 -89 29 -205 -57 -205 -153 0 -78 92 -130 230 -130 294 1 553
193 554 412 1 58 -3 74 -27 110 -31 47 -101 96 -159 112 -47 12 -49 35 -5 43
51 10 167 70 215 111 73 63 110 162 87 235 -12 41 -53 88 -100 116 -25 14 -45
31 -45 38 0 14 133 103 208 141 113 56 289 81 383 55 20 -6 54 -22 75 -36 l39
-26 -24 26 c-78 84 -280 80 -493 -10 -34 -14 -102 -50 -152 -81 l-91 -55 -150
-3 c-162 -2 -293 -26 -481 -86 -50 -16 -97 -29 -104 -29 -17 0 -9 313 10 351
17 37 70 59 161 66 44 3 79 10 79 14 0 5 -182 9 -405 9 -223 0 -405 -4 -405
-9z m1230 -346 c0 -7 -6 -18 -14 -22 -36 -22 -124 -101 -252 -228 -156 -156
-212 -219 -317 -359 -39 -53 -77 -96 -84 -96 -10 0 -13 59 -13 294 l0 294 88
32 c179 65 341 96 505 99 70 1 87 -2 87 -14z m126 -65 c24 -36 26 -47 22 -109
-6 -84 -36 -147 -101 -212 -48 -49 -137 -98 -179 -100 -91 -3 -158 4 -158 18
0 43 339 443 376 443 7 0 26 -18 40 -40z m-1089 -583 c-4 -206 -9 -381 -12
-389 -9 -24 -111 -83 -184 -108 -91 -30 -163 -22 -226 27 -26 21 -48 47 -51
62 -3 14 -9 45 -14 67 -8 35 -5 56 20 134 17 52 30 99 30 106 0 7 16 29 35 50
19 20 35 42 35 48 0 11 62 92 100 131 11 11 24 25 29 30 5 6 35 37 68 70 95
98 144 138 172 144 2 1 1 -167 -2 -372z"/>
</g>
</svg>
